<svg xmlns:dc="http://purl.org/dc/elements/1.1/" xmlns:cc="http://creativecommons.org/ns#"
xmlns:rdf="http://www.w3.org/1999/02/22-rdf-syntax-ns#" xmlns:svg="http://www.w3.org/2000/svg"
xmlns="http://www.w3.org/2000/svg" viewBox="0 0 765 990" height="990" width="765"
xml:space="preserve" version="1.1" id="svg2">
  <metadata id="metadata8">
    <rdf:RDF>
      <cc:Work rdf:about="">
        <dc:format>image/svg+xml</dc:format>
        <dc:type rdf:resource="http://purl.org/dc/dcmitype/StillImage" />
      </cc:Work>
    </rdf:RDF>
  </metadata>
  <defs id="defs6">
    <clipPath id="clipPath16" clipPathUnits="userSpaceOnUse">
      <path id="path18" d="M 0,792 612,792 612,0 0,0 0,792 Z" />
    </clipPath>
    <clipPath id="clipPath52" clipPathUnits="userSpaceOnUse">
      <path id="path54" d="M 0,792 612,792 612,0 0,0 0,792 Z" />
    </clipPath>
  </defs>
  <g transform="matrix(1.25,0,0,-1.25,0,990)" id="g10">
    <g id="g12">
      <g clip-path="url(#clipPath16)" id="g14">
        <g transform="translate(459.658,409.9372)" id="g20">
          <path id="path22" style="fill:#373535;fill-opacity:1;fill-rule:nonzero;stroke:none"
          d="m 0,0 c -1.523,-1.269 -2.484,-2.069 -3.444,-2.871 -4.759,-3.973 -10.274,-5.517 -16.343,-4.651 -5.59,0.798 -9.462,4.665 -10.752,10.784 -1.036,4.912 -0.282,9.71 0.934,14.39 2.108,8.114 4.562,16.139 6.926,24.185 0.415,1.413 1.096,2.747 1.655,4.118 0.611,1.502 1.781,2.152 3.313,1.834 3.517,-0.729 6.824,-2.001 9.601,-4.363 0.975,-0.829 1.329,-1.962 0.978,-3.228 -0.527,-1.901 -1.083,-3.795 -1.643,-5.686 -1.988,-6.714 -4.118,-13.391 -5.898,-20.16 -0.588,-2.24 -0.469,-4.727 -0.332,-7.082 0.17,-2.927 2.171,-4.179 4.978,-3.273 1.303,0.421 2.565,1.053 3.742,1.76 1.268,0.763 2.39,1.763 3.62,2.594 3.111,2.102 4.693,4.974 5.516,8.691 1.79,8.086 4.011,16.077 6.129,24.088 0.375,1.417 1.012,2.79 1.698,4.094 0.869,1.652 2.199,2.319 3.945,1.861 2.865,-0.753 5.682,-1.705 8.137,-3.444 2.273,-1.609 2.639,-2.606 1.839,-5.334 -0.833,-2.84 -1.904,-5.615 -2.651,-8.475 -1.87,-7.16 -3.631,-14.348 -5.406,-21.532 -2.317,-9.382 -4.14,-18.899 -7.721,-27.935 -1.177,-2.97 -2.741,-5.7 -4.708,-8.2 -3.847,-4.892 -9.004,-7.29 -15.113,-7.755 -4.257,-0.323 -8.498,-0.311 -12.595,1.197 -3.377,1.243 -6.506,2.893 -9.071,5.464 -2.593,2.598 -2.905,5.057 -0.712,7.933 1.303,1.71 2.962,3.162 4.545,4.64 0.939,0.878 1.975,0.712 2.922,-0.154 1.464,-1.339 2.865,-2.768 4.448,-3.951 1.887,-1.41 3.815,-2.881 5.947,-3.824 3.897,-1.724 6.203,-0.972 8.184,2.721 1.529,2.852 2.748,5.908 3.772,8.985 C -2.262,-8.675 -1.3,-4.659 0,0"
          />
        </g>
        <g transform="translate(225.1826,421.5489)" id="g24">
          <path id="path26" style="fill:#373535;fill-opacity:1;fill-rule:nonzero;stroke:none"
          d="m 0,0 c 4.21,0.325 7.859,0.453 11.459,0.941 2.141,0.29 4.286,1.093 5.433,3.19 1.197,2.186 1.928,4.531 1.819,7.082 -0.059,1.373 -0.575,2.489 -1.665,3.317 C 14.91,16.153 8.096,16.202 5.958,13.614 2.779,9.766 1.108,5.376 0,0 m -1.098,-8.769 c -0.944,-5.747 1.873,-11.085 7.059,-12.204 5.233,-1.13 9.492,0.393 13.419,3.549 0.617,0.496 4.017,3.147 4.625,3.656 0.858,0.72 0.655,0.308 1.542,-0.239 0.998,-0.616 0.236,-1.146 0.986,-2.037 1.41,-1.675 1.439,-3.392 0.173,-5.184 -1.622,-2.295 -3.764,-4.071 -6.134,-5.532 -8.802,-5.425 -18.491,-5.292 -27.959,-1.108 -5.479,2.422 -8.662,6.827 -9.645,12.663 -1.904,11.297 0.429,21.637 7.618,30.677 3.969,4.992 9.209,8 15.502,9.135 5.018,0.904 10.036,1.008 15.051,-0.002 0.773,-0.155 1.538,-0.36 2.293,-0.584 C 29.925,22.09 33.616,17.136 33.658,10.08 33.695,3.693 31.374,-1.49 26.08,-5.184 23.329,-7.104 20.084,-7.616 16.867,-8.171 11.847,-9.037 6.783,-8.722 1.733,-8.768 0.771,-8.777 -0.192,-8.769 -1.098,-8.769"
          />
        </g>
        <g transform="translate(206.1247,431.7283)" id="g28">
          <path id="path30" style="fill:#373535;fill-opacity:1;fill-rule:nonzero;stroke:none"
          d="m 0,0 c 0.108,-5.333 -1.553,-9.69 -3.385,-13.956 -3.389,-7.89 -7.958,-15.014 -14.226,-20.971 -5.411,-5.143 -11.698,-8.508 -19.244,-8.843 -9.584,-0.425 -15.59,4.821 -16.249,14.848 -0.295,4.48 0.427,8.898 1.586,13.201 1.949,7.231 4.072,14.416 6.162,21.608 0.356,1.227 0.864,2.417 1.387,3.586 1.13,2.526 1.966,3.072 4.636,2.452 3.091,-0.718 5.956,-2.036 8.545,-3.937 1.39,-1.022 1.792,-2.317 1.449,-3.904 -0.229,-1.058 -0.522,-2.107 -0.861,-3.136 -2.412,-7.304 -4.865,-14.602 -6.467,-22.135 -0.465,-2.184 -0.535,-4.497 -0.47,-6.741 0.111,-3.81 3.023,-5.066 6.57,-3.723 2.641,1.001 4.849,2.764 6.623,4.904 4.699,5.666 7.684,12.175 8.801,19.465 0.442,2.885 0.141,5.732 -1.514,8.29 -0.373,0.578 -0.665,1.209 -0.987,1.82 -1.372,2.608 -1.276,3.523 0.862,5.443 2.34,2.1 5.157,3.217 8.243,3.73 2.445,0.406 4.237,-0.568 5.613,-2.506 C -0.789,6.484 0.21,3.138 0,0"
          />
        </g>
        <g transform="translate(332.2719,452.4556)" id="g32">
          <path id="path34" style="fill:#373535;fill-opacity:1;fill-rule:nonzero;stroke:none"
          d="m 0,0 c 3.65,0.169 9.213,-0.708 13.233,-2.543 5.097,-2.326 7.105,-5.872 6.468,-11.409 -0.121,-1.051 -0.554,-2.084 -0.95,-3.082 -0.605,-1.522 -1.779,-2.452 -3.428,-2.339 -2.444,0.168 -4.912,0.362 -7.3,0.872 -1.839,0.393 -2.083,1.061 -2.019,3.057 0.016,0.495 0.086,0.989 0.108,1.484 0.108,2.324 -0.275,3.101 -2.398,3.857 -2.585,0.921 -5.264,1 -7.814,-0.112 -3.481,-1.518 -4.24,-5.665 -1.495,-8.308 0.972,-0.936 2.225,-1.655 3.464,-2.223 3.767,-1.725 7.595,-3.317 11.391,-4.981 2.841,-1.246 5.426,-2.853 7.32,-5.391 1.211,-1.624 1.848,-3.426 2.031,-5.469 0.79,-8.835 -4.46,-14.491 -10.571,-17.213 -8.125,-3.62 -16.451,-3.855 -24.872,-1.104 -2.274,0.743 -4.277,1.98 -6.072,3.595 -4.075,3.667 -4.686,8.269 -3.633,13.29 0.404,1.927 1.358,2.789 3.31,2.76 2.653,-0.04 5.325,-0.263 7.944,-0.688 1.897,-0.308 2.507,-1.079 2.343,-2.83 -0.575,-6.143 3.835,-7.594 8.829,-7.621 1.327,-0.007 2.706,0.545 3.976,1.053 2.068,0.825 2.933,2.639 3.088,4.708 0.149,1.992 -1.004,3.374 -2.718,4.236 -2.822,1.419 -5.693,2.74 -8.513,4.164 -2.291,1.157 -4.61,2.287 -6.79,3.632 -7.659,4.727 -8.59,13.126 -4.28,20.145 2.378,3.873 6.023,5.982 10.233,7.066 C -5.979,-0.587 -4.382,-0.355 0,0"
          />
        </g>
        <g transform="translate(419.418,418.8929)" id="g36">
          <path id="path38" style="fill:#373535;fill-opacity:1;fill-rule:nonzero;stroke:none"
          d="M 0,0 C 2.263,-1.074 2.833,-3.003 3.403,-4.895 3.76,-6.083 3.049,-7.039 2.362,-7.863 c -4.047,-4.86 -9.025,-8.202 -15.332,-9.464 -2.191,-0.439 -4.293,-0.416 -6.465,0.008 -5.178,1.01 -8.201,4.387 -8.595,9.861 -0.272,3.77 0.151,7.504 0.87,11.221 1.5,7.748 2.911,15.513 4.396,23.477 -0.772,0.063 -1.531,0.156 -2.291,0.181 -1.19,0.039 -2.389,-0.048 -3.57,0.062 -2.499,0.231 -3.321,1.286 -2.973,3.731 0.097,0.681 0.334,1.342 0.51,2.011 0.861,3.277 1.406,3.72 4.658,3.742 1.877,0.012 3.754,0.002 5.767,0.002 0.72,3.372 1.38,6.637 2.119,9.883 1.181,5.187 2.373,6.139 7.758,6.138 1.774,0 3.586,-0.003 5.314,-0.342 2.709,-0.533 3.319,-1.58 2.781,-4.199 -0.615,-2.996 -1.31,-5.976 -1.932,-8.971 C -4.777,38.739 -4.786,37.97 -4.869,37.136 -0.067,36.358 4.742,37.738 9.638,36.109 9.479,34.257 9.517,32.571 9.157,30.974 8.558,28.314 7.564,27.548 4.789,27.442 2.014,27.336 -0.768,27.398 -3.547,27.389 c -1.081,-0.003 -2.162,0 -3.459,0 -1.067,-5.007 -2.177,-9.891 -3.134,-14.804 -0.812,-4.17 -1.515,-8.364 -2.117,-12.568 -0.19,-1.324 -0.135,-2.784 0.23,-4.06 0.501,-1.75 1.838,-2.326 3.491,-1.549 1.687,0.792 3.252,1.859 4.819,2.885 C -2.479,-1.898 -1.32,-0.969 0,0"
          />
        </g>
        <g transform="translate(281.4994,444.4135)" id="g40">
          <path id="path42" style="fill:#373535;fill-opacity:1;fill-rule:nonzero;stroke:none"
          d="m 0,0 c 1.881,0.951 3.203,1.614 4.52,2.287 3.728,1.903 7.686,2.43 11.815,2.029 4.182,-0.405 9.119,-3.402 9.057,-9.542 -0.032,-3.189 -0.275,-6.324 -1.38,-9.334 -0.886,-2.413 -1.865,-3.235 -4.419,-3.096 -2.343,0.127 -4.725,0.449 -6.978,1.083 -2.326,0.655 -2.626,1.507 -2.319,3.942 0.087,0.687 0.13,1.383 0.142,2.076 0.048,2.719 -1.59,4.294 -4.267,3.962 -2.493,-0.308 -4.822,-1.231 -6.734,-2.84 -0.738,-0.62 -1.172,-1.8 -1.391,-2.803 -0.902,-4.145 -1.648,-8.324 -2.49,-12.483 -1.095,-5.413 -2.217,-10.821 -3.348,-16.227 -0.465,-2.22 -0.94,-4.44 -1.49,-6.64 -0.787,-3.156 -1.974,-4.181 -5.231,-4.006 -2.444,0.132 -4.909,0.528 -7.284,1.128 -2.102,0.531 -2.658,1.315 -2.421,3.463 0.336,3.032 0.905,6.052 1.58,9.03 2.376,10.492 4.746,20.981 6.288,31.64 0.352,2.436 1.043,4.822 1.492,7.247 0.355,1.924 1.587,2.949 3.348,3.315 2.933,0.61 5.901,0.691 8.84,-0.011 C -0.726,3.756 0.564,2.702 0,0"
          />
        </g>
        <g transform="translate(355.732,412.0726)" id="g44">
          <path id="path46" style="fill:#373535;fill-opacity:1;fill-rule:nonzero;stroke:none"
          d="m 0,0 c -0.131,5.102 1.382,9.946 2.488,14.846 1.649,7.31 3.487,14.576 5.259,21.858 0.233,0.955 0.484,1.915 0.836,2.83 0.61,1.586 1.815,2.624 3.437,3.016 3.13,0.755 6.299,0.623 9.421,-0.034 2.075,-0.436 2.753,-1.422 2.329,-3.731 C 23.238,35.884 22.434,33.031 21.707,30.167 19.745,22.43 17.696,14.713 15.834,6.952 15.404,5.159 15.403,3.207 15.531,1.35 c 0.17,-2.464 1.603,-3.363 3.852,-2.306 2.029,0.953 3.853,2.346 5.748,3.575 0.576,0.374 1.054,0.903 1.638,1.263 0.873,0.537 1.691,0.326 2.412,-0.371 2.179,-2.109 2.508,-5.077 0.474,-7.446 -3.908,-4.551 -8.834,-7.531 -14.737,-8.811 -2.436,-0.528 -4.842,-0.828 -7.327,-0.063 -4.314,1.327 -7.223,4.746 -7.577,9.244 C -0.079,-2.384 0,-1.189 0,0"
          />
        </g>
      </g>
    </g>
    <g id="g48">
      <g clip-path="url(#clipPath52)" id="g50">
        <g transform="translate(239.0236,396.141)" id="g56">
          <path id="path58" style="fill:#373535;fill-opacity:1;fill-rule:nonzero;stroke:none"
          d="m 0,0 c 4.107,3.097 8.805,4.921 12.756,8.306 4.462,3.824 8.65,7.994 11.641,13.091 1.635,2.787 -2.687,5.302 -4.317,2.523 C 17.548,19.607 14.775,17.084 11.382,13.458 2.736,4.218 0.06,5.194 -4.367,3.609 -7.363,2.537 -2.577,-1.943 0,0"
          />
        </g>
        <g transform="translate(243.0118,396.5913)" id="g60">
          <path id="path62" style="fill:#373535;fill-opacity:1;fill-rule:nonzero;stroke:none"
          d="M 0,0 C 7.501,3.554 12.903,9.782 18.006,16.141 20.003,18.63 16.489,22.192 14.47,19.676 9.623,13.636 4.609,7.697 -2.524,4.317 -5.436,2.937 -2.897,-1.373 0,0"
          />
        </g>
        <g transform="translate(244.5955,394.1093)" id="g64">
          <path id="path66" style="fill:#373535;fill-opacity:1;fill-rule:nonzero;stroke:none"
          d="m 0,0 c 4.113,2.474 12.139,6.385 18.029,16.516 1.622,2.788 -1.567,8.972 -3.113,6.142 C 10.774,15.077 3.348,10.331 -2.694,4.414 -5,2.155 -6.424,-4.031 0.733,0.953 L 0,0 Z"
          />
        </g>
        <g transform="translate(248.8324,401.3864)" id="g68">
          <path id="path70" style="fill:#373535;fill-opacity:1;fill-rule:nonzero;stroke:none"
          d="M 0,0 C 9.229,8.547 17.286,18.413 22.143,30.103 23.38,33.08 18.54,34.365 17.322,31.432 12.814,20.584 3.918,8.921 -3.52,3.28 -6.094,1.328 -2.362,-2.187 0,0"
          />
        </g>
        <g transform="translate(262.5178,416.7322)" id="g72">
          <path id="path74" style="fill:#373535;fill-opacity:1;fill-rule:nonzero;stroke:none"
          d="M 0,0 C 2.108,2.655 4.044,5.378 5.391,8.506 5.93,9.758 5.775,11.176 4.494,11.926 3.428,12.551 1.613,12.282 1.074,11.03 -0.098,8.309 -1.697,5.851 -3.536,3.536 -4.382,2.469 -4.581,1.045 -3.536,0 -2.655,-0.881 -0.849,-1.069 0,0"
          />
        </g>
        <g transform="translate(380.0178,406.9822)" id="g76">
          <path id="path78" style="fill:#373535;fill-opacity:1;fill-rule:nonzero;stroke:none"
          d="m 0,0 c 6.387,7.763 14.569,13.862 19.891,22.506 1.695,2.754 -4.48,10.246 -5.029,7.077 C 12.61,16.59 2.57,10.956 -3.536,3.536 -5.567,1.067 -2.05,-2.492 0,0"
          />
        </g>
        <g transform="translate(380.2618,405.8413)" id="g80">
          <path id="path82" style="fill:#373535;fill-opacity:1;fill-rule:nonzero;stroke:none"
          d="m 0,0 c 7.604,4.67 13.896,11.239 19.147,18.397 1.91,2.604 -2.432,5.094 -4.318,2.524 C 10.104,14.478 4.312,8.515 -2.524,4.317 -5.265,2.634 -2.756,-1.692 0,0"
          />
        </g>
        <g transform="translate(379.9515,403.2618)" id="g84">
          <path id="path86" style="fill:#373535;fill-opacity:1;fill-rule:nonzero;stroke:none"
          d="m 0,0 c 5.475,4.176 9.817,9.566 13.566,14.22 2.002,2.486 -1.512,6.048 -3.535,3.536 C 6.282,13.101 1.762,9.202 -2.469,5.006 -4.761,2.733 -1.225,-0.801 1.066,1.47 L 0,0 Z"
          />
        </g>
        <g transform="translate(414.7618,409.0913)" id="g88">
          <path id="path90" style="fill:#373535;fill-opacity:1;fill-rule:nonzero;stroke:none"
          d="m 0,0 c 4.151,2.309 7.275,5.989 10.733,9.176 3.823,3.525 7.656,7.104 10.164,11.721 1.539,2.834 -0.613,14.852 -1.534,11.762 C 16.637,23.511 11.327,16.543 8.123,13.565 4.732,10.413 1.546,6.581 -2.524,4.317 -5.341,2.75 -2.82,-1.569 0,0"
          />
        </g>
        <g transform="translate(419.2678,409.4822)" id="g92">
          <path id="path94" style="fill:#373535;fill-opacity:1;fill-rule:nonzero;stroke:none"
          d="m 0,0 c 5.153,4.973 9.72,10.465 14.25,16 2.024,2.473 -1.492,6.032 -3.536,3.536 C 6.184,14 1.618,8.509 -3.536,3.536 -5.859,1.293 -2.32,-2.239 0,0"
          />
        </g>
        <g transform="translate(419.7618,410.5913)" id="g96">
          <path id="path98" style="fill:#373535;fill-opacity:1;fill-rule:nonzero;stroke:none"
          d="M 0,0 C 4.567,2.717 7.632,7.163 11.006,11.141 13.078,13.584 9.559,17.139 7.47,14.676 4.411,11.07 1.615,6.78 -2.524,4.317 -5.291,2.671 -2.778,-1.653 0,0"
          />
        </g>
        <g transform="translate(419.5178,410.4822)" id="g100">
          <path id="path102" style="fill:#373535;fill-opacity:1;fill-rule:nonzero;stroke:none"
          d="m 0,0 c 3.509,3.674 7.727,6.591 11,10.5 2.055,2.454 -1.463,6.011 -3.536,3.536 -3.272,-3.909 -7.49,-6.826 -11,-10.5 C -5.761,1.205 -2.231,-2.335 0,0"
          />
        </g>
        <g transform="translate(419.5352,408.5887)" id="g104">
          <path id="path106" style="fill:#373535;fill-opacity:1;fill-rule:nonzero;stroke:none"
          d="M 0,0 C 3.361,3.328 8.986,10.328 11.874,11.9 14.709,13.443 9.46,16.975 7.556,14.423 4.113,9.807 -2.577,7.962 -5.191,2.63 c -1.414,-2.883 1.265,-5.109 4.14,-3.078 L 0,0 Z"
          />
        </g>
        <g transform="translate(346.7678,402.9822)" id="g108">
          <path id="path110" style="fill:#373535;fill-opacity:1;fill-rule:nonzero;stroke:none"
          d="M 0,0 C 6.607,6.887 13.198,13.98 17.641,22.506 19.129,25.361 14.814,27.89 13.324,25.03 9.068,16.862 2.793,10.132 -3.536,3.536 -5.767,1.21 -2.236,-2.33 0,0"
          />
        </g>
        <g transform="translate(347.5178,407.7322)" id="g112">
          <path id="path114" style="fill:#373535;fill-opacity:1;fill-rule:nonzero;stroke:none"
          d="m 0,0 c 6.206,5.484 11.862,11.479 16.641,18.256 1.863,2.642 -2.739,14.934 -3.372,11.8 C 9.607,11.933 2.341,8.728 -3.536,3.536 -5.956,1.396 -2.406,-2.126 0,0"
          />
        </g>
        <g transform="translate(217.25,423)" id="g116">
          <path id="path118" style="fill:#373535;fill-opacity:1;fill-rule:nonzero;stroke:none"
          d="m 0,0 c -3.364,0.345 -6.167,4.42 -8.232,6.768 -2.814,3.198 -4.591,6.941 -6.107,10.897 -1.142,2.978 -5.978,1.686 -4.822,-1.33 1.949,-5.084 4.289,-9.573 7.893,-13.671 C -8.196,-0.829 -4.868,-4.501 0,-5 3.207,-5.329 3.175,-0.325 0,0"
          />
        </g>
        <g transform="translate(215.7618,420.4087)" id="g120">
          <path id="path122" style="fill:#373535;fill-opacity:1;fill-rule:nonzero;stroke:none"
          d="m 0,0 c -5.039,3.783 -11.792,7.253 -14.101,13.506 -1.107,2.998 -5.941,1.702 -4.821,-1.329 C -16.062,4.43 -8.796,0.392 -2.524,-4.317 0.058,-6.255 2.545,-1.911 0,0"
          />
        </g>
        <g transform="translate(213.4146,419.9107)" id="g124">
          <path id="path126" style="fill:#373535;fill-opacity:1;fill-rule:nonzero;stroke:none"
          d="m 0,0 c -4.118,1.019 -11.213,4.434 -12.254,9.004 -0.716,3.143 -5.536,1.81 -4.821,-1.329 C -15.627,1.316 -7.157,-3.38 -1.329,-4.821 1.801,-5.596 3.129,-0.774 0,0"
          />
        </g>
        <g transform="translate(210.7678,424.7678)" id="g128">
          <path id="path130" style="fill:#373535;fill-opacity:1;fill-rule:nonzero;stroke:none"
          d="M 0,0 C -3.009,3.113 -5.486,7.031 -6.857,11.147 -7.871,14.19 -12.7,12.886 -11.678,9.818 -10.031,4.871 -7.157,0.212 -3.536,-3.536 -1.291,-5.857 2.241,-2.318 0,0"
          />
        </g>
        <g transform="translate(210.5178,428.2678)" id="g132">
          <path id="path134" style="fill:#373535;fill-opacity:1;fill-rule:nonzero;stroke:none"
          d="m 0,0 c -3.347,3.837 -5.055,10.098 -8.285,14.085 -2.031,2.506 -4.511,-1.89 -2.501,-4.371 3.215,-3.966 3.832,-9.329 7.25,-13.25 C -1.412,-5.97 2.109,-2.418 0,0"
          />
        </g>
        <g transform="translate(248.9403,403.2059)" id="g136">
          <path id="path138" style="fill:#373535;fill-opacity:1;fill-rule:nonzero;stroke:none"
          d="M 0,0 C 12.244,9.107 18.469,23.575 22.899,37.744 23.864,40.83 19.036,42.14 18.077,39.073 14.089,26.314 6.81,10.294 -1.659,3.19 -4.099,1.143 -2.591,-1.927 0,0"
          />
        </g>
      </g>
    </g>
  </g>
</svg>
